<?xml version="1.0" encoding="UTF-8"?>
<svg id="Camada_1" xmlns="http://www.w3.org/2000/svg" version="1.1" xmlns:xlink="http://www.w3.org/1999/xlink" viewBox="0 0 486.6 53.2">
  <!-- Generator: Adobe Illustrator 29.8.5, SVG Export Plug-In . SVG Version: 2.1.1 Build 2)  -->
  <defs>
    <style>
      .st0 {
        fill: url(#Gradiente_sem_nome_1072);
      }

      .st1 {
        fill: url(#Gradiente_sem_nome_107);
      }

      .st2 {
        fill: url(#Gradiente_sem_nome_1071);
      }

      .st3 {
        fill: url(#Gradiente_sem_nome_1073);
      }
    </style>
    <linearGradient id="Gradiente_sem_nome_107" data-name="Gradiente sem nome 107" x1="324.5" y1="52.3" x2="277.5" y2="5.4" gradientUnits="userSpaceOnUse">
      <stop offset="0" stop-color="#4c6ef5"/>
      <stop offset="1" stop-color="#835ef6"/>
      <stop offset="1" stop-color="#845ef7"/>
    </linearGradient>
    <linearGradient id="Gradiente_sem_nome_1071" data-name="Gradiente sem nome 107" x1="373.4" y1="57.5" x2="330.1" y2="14.2" xlink:href="#Gradiente_sem_nome_107"/>
    <linearGradient id="Gradiente_sem_nome_1072" data-name="Gradiente sem nome 107" x1="432.5" y1="51.3" x2="382.6" y2="1.4" xlink:href="#Gradiente_sem_nome_107"/>
    <linearGradient id="Gradiente_sem_nome_1073" data-name="Gradiente sem nome 107" x1="488.1" y1="51.2" x2="438.6" y2="1.8" xlink:href="#Gradiente_sem_nome_107"/>
  </defs>
  <path d="M32.9,2.1v9.9H12.3v10.7h15.4v9.6h-15.4v20.4H0V2.1h32.9Z"/>
  <path d="M77,35.5h-27.9c.2,2.5,1,4.4,2.4,5.7,1.4,1.3,3.2,2,5.2,2,3.1,0,5.2-1.3,6.4-3.9h13.1c-.7,2.6-1.9,5-3.6,7.1-1.8,2.1-3.9,3.8-6.6,5-2.6,1.2-5.6,1.8-8.9,1.8s-7.4-.8-10.5-2.5c-3.1-1.7-5.5-4.1-7.2-7.2-1.7-3.1-2.6-6.8-2.6-10.9s.9-7.8,2.6-10.9c1.7-3.1,4.1-5.5,7.2-7.2,3.1-1.7,6.6-2.5,10.6-2.5s7.3.8,10.4,2.4c3,1.6,5.4,4,7.1,7,1.7,3,2.6,6.6,2.6,10.6s0,2.4-.2,3.6ZM64.7,28.7c0-2.1-.7-3.8-2.2-5-1.4-1.2-3.2-1.9-5.4-1.9s-3.8.6-5.2,1.8c-1.4,1.2-2.3,2.9-2.6,5.1h15.4Z"/>
  <path d="M83.6,21.6c1.6-3.1,3.7-5.5,6.4-7.2,2.7-1.7,5.7-2.5,9-2.5s5.3.6,7.5,1.7,3.8,2.7,4.9,4.5v-5.7h12.3v40.2h-12.3v-5.7c-1.2,1.9-2.9,3.4-5,4.5-2.1,1.2-4.6,1.7-7.5,1.7s-6.2-.9-8.9-2.6c-2.7-1.7-4.8-4.1-6.4-7.3-1.6-3.1-2.3-6.8-2.3-10.9s.8-7.8,2.3-10.9ZM108.8,25.3c-1.7-1.8-3.8-2.7-6.2-2.7s-4.5.9-6.2,2.6c-1.7,1.8-2.6,4.2-2.6,7.2s.9,5.5,2.6,7.3c1.7,1.8,3.8,2.7,6.2,2.7s4.5-.9,6.2-2.7c1.7-1.8,2.6-4.2,2.6-7.3s-.9-5.5-2.6-7.3Z"/>
  <path d="M155,42.2v10.4h-6.3c-4.5,0-7.9-1.1-10.4-3.3-2.5-2.2-3.7-5.7-3.7-10.7v-16h-4.9v-10.2h4.9V2.7h12.3v9.8h8.1v10.2h-8.1v16.1c0,1.2.3,2.1.9,2.6.6.5,1.5.8,2.9.8h4.4Z"/>
  <path d="M201.5,12.5v40.2h-12.3v-5.5c-1.2,1.8-2.9,3.2-5.1,4.3-2.1,1.1-4.5,1.6-7.1,1.6s-5.8-.7-8.1-2.1c-2.4-1.4-4.2-3.3-5.5-5.9-1.3-2.6-1.9-5.6-1.9-9.1V12.5h12.2v21.8c0,2.7.7,4.8,2.1,6.3,1.4,1.5,3.3,2.2,5.6,2.2s4.3-.7,5.7-2.2c1.4-1.5,2.1-3.6,2.1-6.3V12.5h12.3Z"/>
  <path d="M228.1,13.9c2.2-1.3,4.6-1.9,7.2-1.9v13h-3.4c-3.1,0-5.4.7-6.9,2-1.5,1.3-2.3,3.6-2.3,6.9v18.6h-12.3V12.5h12.3v6.7c1.4-2.2,3.2-3.9,5.4-5.2Z"/>
  <path d="M278.9,35.5h-27.9c.2,2.5,1,4.4,2.4,5.7,1.4,1.3,3.2,2,5.2,2,3.1,0,5.2-1.3,6.4-3.9h13.1c-.7,2.6-1.9,5-3.6,7.1-1.8,2.1-3.9,3.8-6.6,5-2.6,1.2-5.6,1.8-8.9,1.8s-7.4-.8-10.5-2.5c-3.1-1.7-5.5-4.1-7.2-7.2-1.7-3.1-2.6-6.8-2.6-10.9s.9-7.8,2.6-10.9c1.7-3.1,4.1-5.5,7.2-7.2,3.1-1.7,6.6-2.5,10.6-2.5s7.3.8,10.4,2.4c3,1.6,5.4,4,7.1,7,1.7,3,2.6,6.6,2.6,10.6s0,2.4-.2,3.6ZM266.5,28.7c0-2.1-.7-3.8-2.2-5-1.4-1.2-3.2-1.9-5.4-1.9s-3.8.6-5.2,1.8c-1.4,1.2-2.3,2.9-2.6,5.1h15.4Z"/>
  <path class="st1" d="M309.7,52.6l-11-19.9h-3.1v19.9h-12.8V0h21.5c4.1,0,7.7.7,10.6,2.2,2.9,1.5,5.1,3.4,6.6,6,1.5,2.5,2.2,5.3,2.2,8.4s-1,6.6-3,9.4c-2,2.8-4.9,4.7-8.7,5.9l12.1,20.9h-14.5ZM295.7,23.7h8c2.3,0,4.1-.6,5.3-1.7,1.2-1.1,1.8-2.8,1.8-4.9s-.6-3.6-1.8-4.7c-1.2-1.1-2.9-1.7-5.3-1.7h-8v13Z"/>
  <path class="st2" d="M361.5,43.4h-19.6l-3.2,9.3h-13.4L344.4,0h14.8l19.1,52.6h-13.6l-3.2-9.3ZM358.2,33.4l-6.5-19.3-6.4,19.3h13Z"/>
  <path class="st0" d="M431.1,52.6h-12.8l-21.5-32.5v32.5h-12.8V0h12.8l21.5,32.6V0h12.8v52.6Z"/>
  <path class="st3" d="M471,52.6l-17.7-23.2v23.2h-12.8V0h12.8v23.1L470.8,0h15.1l-20.4,25.8,21.1,26.9h-15.7Z"/>
</svg>